<?xml version="1.0" encoding="UTF-8"?>
<!DOCTYPE svg PUBLIC "-//W3C//DTD SVG 1.1//EN" "http://www.w3.org/Graphics/SVG/1.1/DTD/svg11.dtd">
<svg xmlns="http://www.w3.org/2000/svg" version="1.1" width="1080px" height="1701px" style="shape-rendering:geometricPrecision; text-rendering:geometricPrecision; image-rendering:optimizeQuality; fill-rule:evenodd; clip-rule:evenodd" xmlns:xlink="http://www.w3.org/1999/xlink">
<g><path style="opacity:0.99" fill="#365a64" d="M 784.5,513.5 C 783.522,513.811 782.855,514.478 782.5,515.5C 784.926,530.205 788.76,544.538 794,558.5C 794.361,561.525 794.861,564.525 795.5,567.5C 795.392,568.442 795.059,569.275 794.5,570C 797.526,574.175 799.193,578.842 799.5,584C 799.043,584.414 798.709,584.914 798.5,585.5C 800.916,591.225 802.583,597.225 803.5,603.5C 804.743,605.691 805.576,608.024 806,610.5C 806.232,609.263 806.732,608.263 807.5,607.5C 808.167,607.5 808.5,607.833 808.5,608.5C 807.776,612.365 807.109,616.365 806.5,620.5C 810.18,631.341 812.68,642.341 814,653.5C 821.844,693.735 827.844,734.401 832,775.5C 832.91,780.296 834.243,784.963 836,789.5C 836.399,789.272 836.565,788.938 836.5,788.5C 837.338,788.842 837.672,789.508 837.5,790.5C 836.504,790.414 835.671,790.748 835,791.5C 834.813,801.543 835.479,811.543 837,821.5C 837.781,857.998 838.615,894.331 839.5,930.5C 839.5,930.833 839.5,931.167 839.5,931.5C 838.539,935.335 837.705,939.335 837,943.5C 836.168,954.182 836.334,964.849 837.5,975.5C 841.881,981.305 847.215,985.971 853.5,989.5C 854.706,992.875 856.54,995.875 859,998.5C 864.779,1002.95 869.946,1008.11 874.5,1014C 877.319,1016.57 880.319,1018.91 883.5,1021C 884.448,1021.48 885.448,1021.65 886.5,1021.5C 928.524,1064.36 969.024,1108.69 1008,1154.5C 1008.45,1157.77 1009.29,1160.93 1010.5,1164C 1002.36,1189.92 993.361,1215.42 983.5,1240.5C 982.811,1239.23 981.977,1239.23 981,1240.5C 972.667,1263.8 964.333,1287.14 956,1310.5C 955.72,1314.47 954.886,1318.31 953.5,1322C 953.648,1323.26 953.982,1324.42 954.5,1325.5C 947.971,1345.92 941.138,1366.25 934,1386.5C 931.597,1393.72 928.764,1400.72 925.5,1407.5C 924.883,1407.39 924.383,1407.06 924,1406.5C 923.441,1409.28 922.108,1411.62 920,1413.5C 912.979,1433.87 905.479,1454.37 897.5,1475C 897.859,1477.63 898.859,1479.8 900.5,1481.5C 898.43,1486.88 896.263,1492.21 894,1497.5C 885.522,1510.75 873.688,1515.09 858.5,1510.5C 842.703,1488.57 828.703,1465.57 816.5,1441.5C 790.918,1411.75 764.752,1382.41 738,1353.5C 733.209,1349.2 728.042,1345.53 722.5,1342.5C 723.239,1342.63 723.906,1342.46 724.5,1342C 723.5,1340.33 722.167,1339 720.5,1338C 715.51,1336.56 710.677,1334.73 706,1332.5C 704.853,1333.46 703.853,1333.12 703,1331.5C 701.442,1332.35 700.442,1331.68 700,1329.5C 696.592,1329.99 693.259,1329.32 690,1327.5C 688.984,1328.63 688.317,1328.3 688,1326.5C 687.804,1328.29 686.971,1329.62 685.5,1330.5C 684.386,1331.72 684.219,1333.06 685,1334.5C 692.291,1347.1 700.291,1359.1 709,1370.5C 709.464,1369.91 709.631,1369.24 709.5,1368.5C 729.502,1400.45 745.502,1434.45 757.5,1470.5C 756.028,1472.12 755.361,1474.12 755.5,1476.5C 756.478,1481.76 756.811,1486.93 756.5,1492C 756.067,1497.42 754.734,1502.59 752.5,1507.5C 747.492,1508.71 742.492,1508.54 737.5,1507C 734.72,1504.13 731.72,1501.47 728.5,1499C 726.86,1498.65 725.527,1499.15 724.5,1500.5C 703.544,1485.21 686.878,1466.21 674.5,1443.5C 675.028,1442.28 675.695,1441.11 676.5,1440C 674.155,1437.32 671.488,1434.99 668.5,1433C 666.82,1432.97 665.32,1432.8 664,1432.5C 661.09,1433.45 659.923,1435.45 660.5,1438.5C 659.178,1438.33 658.011,1438.66 657,1439.5C 652.981,1447.32 649.814,1455.15 647.5,1463C 648.022,1463.56 648.355,1464.23 648.5,1465C 644.704,1484.58 641.704,1504.08 639.5,1523.5C 640.5,1523.5 641.5,1523.5 642.5,1523.5C 642.5,1524.17 642.167,1524.5 641.5,1524.5C 640.883,1524.61 640.383,1524.94 640,1525.5C 638.71,1532.96 636.544,1540.13 633.5,1547C 634.259,1558.36 632.759,1569.53 629,1580.5C 627.621,1595.56 625.788,1610.56 623.5,1625.5C 623.52,1626.73 623.853,1627.73 624.5,1628.5C 617.48,1640 610.48,1639.67 603.5,1627.5C 595.414,1606.31 587.581,1584.98 580,1563.5C 573.34,1548.7 566.506,1534.03 559.5,1519.5C 559.611,1518.88 559.944,1518.38 560.5,1518C 559.367,1514.58 557.867,1511.41 556,1508.5C 551.548,1505.91 547.214,1506.25 543,1509.5C 537.458,1524.86 531.624,1539.69 525.5,1554C 525.833,1554.33 526.167,1554.67 526.5,1555C 523.327,1562.19 521.16,1569.69 520,1577.5C 515.665,1586.85 511.332,1596.19 507,1605.5C 505.178,1608.32 503.011,1610.82 500.5,1613C 495.78,1614.27 492.28,1612.77 490,1608.5C 485.464,1597.62 482.964,1586.29 482.5,1574.5C 481.448,1574.65 480.448,1574.48 479.5,1574C 480.833,1571.33 480.833,1568.67 479.5,1566C 481.53,1563.71 481.53,1561.21 479.5,1558.5C 478.583,1559.13 477.583,1559.46 476.5,1559.5C 475.205,1550.85 473.705,1542.18 472,1533.5C 470.905,1532.31 470.072,1530.97 469.5,1529.5C 470.613,1528.05 470.78,1526.39 470,1524.5C 467.167,1521 464.333,1517.5 461.5,1514C 457.195,1512.39 452.862,1510.72 448.5,1509C 440.5,1508.33 432.5,1508.33 424.5,1509C 422.862,1510.8 421.028,1510.97 419,1509.5C 416.976,1509.8 416.476,1510.63 417.5,1512C 416.552,1512.48 415.552,1512.65 414.5,1512.5C 414.5,1513.5 414.5,1514.5 414.5,1515.5C 410.541,1517.72 406.208,1519.05 401.5,1519.5C 399.023,1520.88 399.023,1521.88 401.5,1522.5C 400.71,1523.4 399.71,1524.07 398.5,1524.5C 398.5,1523.5 398.5,1522.5 398.5,1521.5C 394.646,1521.84 391.146,1523.17 388,1525.5C 387.667,1525.17 387.333,1524.83 387,1524.5C 384.563,1526.14 382.73,1528.31 381.5,1531C 378.467,1532.84 375.134,1533.84 371.5,1534C 368.5,1535.67 365.5,1537.33 362.5,1539C 358.707,1540.05 356.707,1538.55 356.5,1534.5C 359.513,1519.81 362.513,1505.14 365.5,1490.5C 365.36,1488.97 364.693,1487.97 363.5,1487.5C 376.24,1431.66 389.907,1375.99 404.5,1320.5C 385.982,1323.63 367.982,1328.47 350.5,1335C 346.167,1337.33 341.833,1339.67 337.5,1342C 316.749,1369.36 295.415,1396.19 273.5,1422.5C 270.065,1426.42 265.899,1429.42 261,1431.5C 258.667,1435.55 256.333,1439.55 254,1443.5C 246.646,1447.01 242.146,1452.67 240.5,1460.5C 238.176,1463.82 235.509,1466.82 232.5,1469.5C 232.565,1469.06 232.399,1468.73 232,1468.5C 230.195,1470.32 228.028,1471.49 225.5,1472C 224.707,1473.09 224.04,1474.25 223.5,1475.5C 220.143,1478.51 216.476,1481.18 212.5,1483.5C 209.153,1482.39 206.153,1480.72 203.5,1478.5C 202.462,1475.53 200.962,1472.86 199,1470.5C 198.28,1468.89 198.446,1467.39 199.5,1466C 198.584,1465.63 197.75,1465.13 197,1464.5C 197.266,1461.1 195.766,1459.43 192.5,1459.5C 188.86,1443.75 183.193,1428.92 175.5,1415C 174.836,1411.01 173.669,1407.18 172,1403.5C 170.924,1400.92 169.091,1399.25 166.5,1398.5C 149.721,1359.68 133.221,1320.68 117,1281.5C 99.7035,1237.59 82.0369,1193.93 64,1150.5C 63.3333,1147.17 63.3333,1143.83 64,1140.5C 68.8244,1131.66 74.4911,1123.33 81,1115.5C 123.051,1069.79 165.384,1024.45 208,979.5C 211.325,971.507 215.659,964.174 221,957.5C 218.24,799.89 245.573,648.557 303,503.5C 342.849,418.132 388.683,336.132 440.5,257.5C 477.468,213.366 514.968,169.7 553,126.5C 555.964,121.751 559.797,120.751 564.5,123.5C 584.232,139.276 602.065,156.943 618,176.5C 691.707,279.757 747.207,392.091 784.5,513.5 Z"/></g>
<g><path style="opacity:0.996" fill="#06f7c4" d="M 595.5,208.5 C 597.349,211.883 598.516,215.55 599,219.5C 601,222.833 603,226.167 605,229.5C 606.154,230.743 607.488,231.743 609,232.5C 609.333,233.833 609.667,235.167 610,236.5C 616.931,245.91 623.765,255.243 630.5,264.5C 632.736,267.944 635.236,271.277 638,274.5C 640.998,280.313 644.164,285.98 647.5,291.5C 649.011,295.185 650.511,298.852 652,302.5C 658.311,311.455 663.311,321.122 667,331.5C 670.185,336.07 673.185,340.737 676,345.5C 679.964,353.756 683.631,362.09 687,370.5C 688,371.167 689,371.833 690,372.5C 691.379,376.848 693.213,380.848 695.5,384.5C 699.294,393.05 702.794,401.717 706,410.5C 709.238,417.442 712.738,424.108 716.5,430.5C 717.876,437.012 719.71,443.346 722,449.5C 724.468,454.071 726.635,458.737 728.5,463.5C 735.899,485.337 742.733,507.337 749,529.5C 750.641,533.77 752.475,537.77 754.5,541.5C 755.924,543.515 756.59,545.848 756.5,548.5C 756.342,551.902 756.676,555.236 757.5,558.5C 763.21,581.175 768.21,604.008 772.5,627C 774.467,633.882 776.634,640.716 779,647.5C 780.598,659.766 781.764,672.1 782.5,684.5C 783.086,684.709 783.586,685.043 784,685.5C 784.305,693.023 785.638,700.357 788,707.5C 789.362,720.55 791.029,733.55 793,746.5C 799.188,822.378 801.021,898.378 798.5,974.5C 798.5,974.833 798.5,975.167 798.5,975.5C 797.144,978.577 796.311,981.91 796,985.5C 794.961,997.477 794.294,1009.48 794,1021.5C 791.517,1033.38 790.017,1045.38 789.5,1057.5C 788.085,1064.38 786.585,1071.38 785,1078.5C 784.667,1085.83 784.333,1093.17 784,1100.5C 780.882,1111.98 778.548,1123.65 777,1135.5C 776.085,1136.33 775.419,1137.33 775,1138.5C 773.202,1153.62 770.869,1168.62 768,1183.5C 763.516,1198.74 759.516,1214.08 756,1229.5C 754.238,1239.12 752.738,1248.78 751.5,1258.5C 750.082,1262.99 749.082,1267.65 748.5,1272.5C 746.236,1277.46 744.069,1282.46 742,1287.5C 740.6,1296.34 738.767,1305 736.5,1313.5C 733.482,1313.3 730.482,1312.96 727.5,1312.5C 725.058,1311.28 722.724,1309.78 720.5,1308C 704.071,1302.38 687.404,1297.05 670.5,1292C 654.41,1289.83 638.41,1287.33 622.5,1284.5C 621.719,1283.27 621.219,1281.94 621,1280.5C 619.961,1263.21 621.128,1246.21 624.5,1229.5C 626.067,1228.32 626.901,1226.65 627,1224.5C 627.333,1217.5 627.667,1210.5 628,1203.5C 629.946,1200.86 630.946,1197.86 631,1194.5C 633.213,1169.14 635.713,1143.81 638.5,1118.5C 639.226,1105.52 640.893,1092.69 643.5,1080C 643.347,1077.78 643.014,1075.62 642.5,1073.5C 642.666,1069.15 642.499,1064.82 642,1060.5C 639.059,1048.93 636.392,1037.27 634,1025.5C 632.481,1020.67 630.647,1016.01 628.5,1011.5C 627.006,1005.17 625.506,998.841 624,992.5C 621.957,991.421 620.624,989.754 620,987.5C 619.548,984.123 618.882,980.789 618,977.5C 615.688,974.542 614.188,971.209 613.5,967.5C 612.482,966.807 611.482,966.141 610.5,965.5C 609.768,959.174 607.435,953.508 603.5,948.5C 601.481,946.81 599.481,945.144 597.5,943.5C 596.167,943.5 594.833,943.5 593.5,943.5C 591.9,942.356 590.233,941.189 588.5,940C 580.942,938.639 573.609,936.806 566.5,934.5C 560.499,933.263 554.499,931.763 548.5,930C 535.093,929.358 521.76,928.191 508.5,926.5C 503.833,926.833 499.167,927.167 494.5,927.5C 493.867,929.786 492.534,931.452 490.5,932.5C 488.284,933.203 486.451,934.536 485,936.5C 480.017,944.024 477.684,952.357 478,961.5C 473.356,1065.74 469.856,1170.07 467.5,1274.5C 443.149,1276.33 418.815,1278.5 394.5,1281C 389.008,1282.85 383.342,1283.85 377.5,1284C 375.382,1284.26 373.716,1285.26 372.5,1287C 369.167,1287.33 365.833,1287.67 362.5,1288C 357.374,1290.3 352.374,1292.8 347.5,1295.5C 343.603,1293.78 340.436,1291.11 338,1287.5C 335.108,1283.81 332.941,1279.81 331.5,1275.5C 330.272,1274.69 329.272,1273.69 328.5,1272.5C 328.575,1268.1 328.075,1263.77 327,1259.5C 324.305,1256.39 322.972,1252.72 323,1248.5C 318.764,1241.77 316.097,1234.43 315,1226.5C 314.34,1224.68 313.173,1223.34 311.5,1222.5C 308.732,1212.3 305.399,1202.3 301.5,1192.5C 299.63,1170.78 294.797,1149.78 287,1129.5C 285.3,1117.18 283.3,1104.84 281,1092.5C 279.529,1091.62 278.696,1090.29 278.5,1088.5C 276.358,1079.29 275.191,1069.96 275,1060.5C 271.974,1053.19 270.641,1045.52 271,1037.5C 269.013,1029.96 267.68,1022.29 267,1014.5C 266.986,999.758 265.986,985.092 264,970.5C 260.6,898.146 263.434,826.146 272.5,754.5C 276.689,736.625 280.356,718.625 283.5,700.5C 283.5,700.167 283.5,699.833 283.5,699.5C 284.141,696.073 285.308,692.74 287,689.5C 286.751,684.32 288.085,679.653 291,675.5C 293.245,663.598 296.245,651.931 300,640.5C 301.723,635.043 302.723,629.376 303,623.5C 304.333,622.833 305.333,621.833 306,620.5C 310.878,603.2 316.544,586.2 323,569.5C 323.559,565.814 324.226,562.147 325,558.5C 327.64,551.878 330.306,545.211 333,538.5C 333.494,536.866 333.66,535.199 333.5,533.5C 334.833,533.5 336.167,533.5 337.5,533.5C 340.652,524.522 343.819,515.522 347,506.5C 350.979,498.541 354.979,490.541 359,482.5C 359.936,478.886 360.436,475.22 360.5,471.5C 364.313,467.486 367.813,463.153 371,458.5C 375.332,448.853 379.332,439.186 383,429.5C 388.971,422.715 393.305,415.048 396,406.5C 397.483,403.674 399.483,401.341 402,399.5C 407.274,389.279 412.774,379.279 418.5,369.5C 421.327,364.539 423.493,359.206 425,353.5C 428.268,348.784 432.101,344.617 436.5,341C 439.568,333.793 443.735,327.293 449,321.5C 449.333,318.833 449.667,316.167 450,313.5C 455.014,308.149 459.681,302.482 464,296.5C 465.797,290.247 469.13,284.914 474,280.5C 478.883,271.618 485.217,263.952 493,257.5C 494.29,255.208 495.957,253.208 498,251.5C 498.725,249.051 499.725,246.717 501,244.5C 506.699,237.97 512.533,231.637 518.5,225.5C 520.463,224.04 522.296,222.373 524,220.5C 526.969,215.366 530.136,210.366 533.5,205.5C 535.193,204.772 536.693,203.772 538,202.5C 545.886,191.773 554.719,181.773 564.5,172.5C 567.841,174.166 570.008,176.833 571,180.5C 575.794,183.794 579.294,188.127 581.5,193.5C 583.193,195.027 585.027,196.36 587,197.5C 588.975,201.884 591.809,205.551 595.5,208.5 Z"/></g>
<g><path style="opacity:0.996" fill="#0de1b6" d="M 566.5,170.5 C 570.492,174.158 574.492,177.825 578.5,181.5C 580.906,185.88 583.406,190.213 586,194.5C 587.532,196.562 589.532,197.896 592,198.5C 593.459,201.77 594.626,205.103 595.5,208.5C 591.809,205.551 588.975,201.884 587,197.5C 585.027,196.36 583.193,195.027 581.5,193.5C 579.294,188.127 575.794,183.794 571,180.5C 570.008,176.833 567.841,174.166 564.5,172.5C 554.719,181.773 545.886,191.773 538,202.5C 536.693,203.772 535.193,204.772 533.5,205.5C 530.136,210.366 526.969,215.366 524,220.5C 522.296,222.373 520.463,224.04 518.5,225.5C 519.989,222.522 521.489,219.522 523,216.5C 535.245,201.081 548.078,186.081 561.5,171.5C 563.045,170.548 564.712,170.215 566.5,170.5 Z"/></g>
<g><path style="opacity:0.996" fill="#2c7b78" d="M 604.5,218.5 C 601.157,215.423 598.157,212.09 595.5,208.5C 594.626,205.103 593.459,201.77 592,198.5C 589.532,197.896 587.532,196.562 586,194.5C 583.406,190.213 580.906,185.88 578.5,181.5C 574.492,177.825 570.492,174.158 566.5,170.5C 564.306,169.234 561.972,169.234 559.5,170.5C 547.197,185.636 534.363,200.303 521,214.5C 514.792,224.05 507.792,233.05 500,241.5C 493.515,251.762 486.182,261.428 478,270.5C 470.671,280.487 463.838,290.82 457.5,301.5C 453.721,306.752 449.721,311.752 445.5,316.5C 454.037,302.135 463.537,288.469 474,275.5C 477.835,267.155 482.668,259.488 488.5,252.5C 490.234,250.766 492.234,249.432 494.5,248.5C 496.783,242.939 500.283,238.272 505,234.5C 507.442,231.952 509.108,228.952 510,225.5C 517.091,217.2 523.758,208.534 530,199.5C 533.345,196.827 536.679,194.16 540,191.5C 546.816,183.018 553.982,174.851 561.5,167C 562.333,166.833 563.167,166.667 564,166.5C 567.981,168.28 571.814,170.28 575.5,172.5C 578.69,178.878 582.857,184.544 588,189.5C 591.597,196.367 595.93,202.7 601,208.5C 602.46,211.748 603.626,215.081 604.5,218.5 Z"/></g>
<g><path style="opacity:0.996" fill="#11d7b0" d="M 595.5,208.5 C 598.157,212.09 601.157,215.423 604.5,218.5C 607.274,221.93 609.607,225.596 611.5,229.5C 618.029,241.112 624.362,252.779 630.5,264.5C 623.765,255.243 616.931,245.91 610,236.5C 609.667,235.167 609.333,233.833 609,232.5C 607.488,231.743 606.154,230.743 605,229.5C 603,226.167 601,222.833 599,219.5C 598.516,215.55 597.349,211.883 595.5,208.5 Z"/></g>
<g><path style="opacity:0.996" fill="#17c4a5" d="M 566.5,170.5 C 564.712,170.215 563.045,170.548 561.5,171.5C 548.078,186.081 535.245,201.081 523,216.5C 521.489,219.522 519.989,222.522 518.5,225.5C 512.533,231.637 506.699,237.97 501,244.5C 499.725,246.717 498.725,249.051 498,251.5C 495.957,253.208 494.29,255.208 493,257.5C 485.217,263.952 478.883,271.618 474,280.5C 469.13,284.914 465.797,290.247 464,296.5C 459.681,302.482 455.014,308.149 450,313.5C 449.667,316.167 449.333,318.833 449,321.5C 443.735,327.293 439.568,333.793 436.5,341C 432.101,344.617 428.268,348.784 425,353.5C 423.493,359.206 421.327,364.539 418.5,369.5C 415.991,370.921 413.657,372.588 411.5,374.5C 411.5,373.833 411.5,373.167 411.5,372.5C 415.559,366.059 419.392,359.393 423,352.5C 433.599,342.408 441.099,330.408 445.5,316.5C 449.721,311.752 453.721,306.752 457.5,301.5C 463.838,290.82 470.671,280.487 478,270.5C 486.182,261.428 493.515,251.762 500,241.5C 507.792,233.05 514.792,224.05 521,214.5C 534.363,200.303 547.197,185.636 559.5,170.5C 561.972,169.234 564.306,169.234 566.5,170.5 Z"/></g>
<g><path style="opacity:0.996" fill="#22a18f" d="M 611.5,229.5 C 615.376,234.841 619.542,240.174 624,245.5C 624.874,250.159 627.207,253.826 631,256.5C 631.748,258.332 632.748,259.999 634,261.5C 634.969,266.815 637.303,271.482 641,275.5C 642.059,279.915 644.059,283.915 647,287.5C 647.49,288.793 647.657,290.127 647.5,291.5C 644.164,285.98 640.998,280.313 638,274.5C 635.236,271.277 632.736,267.944 630.5,264.5C 624.362,252.779 618.029,241.112 611.5,229.5 Z"/></g>
<g><path style="opacity:0.996" fill="#268e84" d="M 445.5,316.5 C 441.099,330.408 433.599,342.408 423,352.5C 419.392,359.393 415.559,366.059 411.5,372.5C 414.049,366.401 416.882,360.401 420,354.5C 422.69,350.487 425.69,346.82 429,343.5C 430.37,339.755 432.037,336.088 434,332.5C 438.084,327.265 441.917,321.931 445.5,316.5 Z"/></g>
<g><path style="opacity:0.996" fill="#18bda0" d="M 647.5,291.5 C 651.999,295.332 655.332,299.999 657.5,305.5C 660.31,312.774 664.143,319.441 669,325.5C 669.281,330.103 670.948,334.103 674,337.5C 675.999,344.466 679.332,350.799 684,356.5C 687.265,365.541 691.098,374.208 695.5,382.5C 695.5,383.167 695.5,383.833 695.5,384.5C 693.213,380.848 691.379,376.848 690,372.5C 689,371.833 688,371.167 687,370.5C 683.631,362.09 679.964,353.756 676,345.5C 673.185,340.737 670.185,336.07 667,331.5C 663.311,321.122 658.311,311.455 652,302.5C 650.511,298.852 649.011,295.185 647.5,291.5 Z"/></g>
<g><path style="opacity:0.996" fill="#2e7574" d="M 657.5,305.5 C 661.499,312.156 665.999,318.489 671,324.5C 677.497,339.641 684.831,354.308 693,368.5C 693.311,373.109 694.978,377.109 698,380.5C 698.494,382.134 698.66,383.801 698.5,385.5C 697.728,384.306 696.728,383.306 695.5,382.5C 691.098,374.208 687.265,365.541 684,356.5C 679.332,350.799 675.999,344.466 674,337.5C 670.948,334.103 669.281,330.103 669,325.5C 664.143,319.441 660.31,312.774 657.5,305.5 Z"/></g>
<g><path style="opacity:0.996" fill="#1bb39a" d="M 411.5,374.5 C 406.892,382.051 403.059,390.051 400,398.5C 398.428,401.107 396.594,403.441 394.5,405.5C 395.795,401.031 397.462,396.698 399.5,392.5C 403.108,386.228 407.108,380.228 411.5,374.5 Z"/></g>
<g><path style="opacity:0.996" fill="#23998a" d="M 695.5,382.5 C 696.728,383.306 697.728,384.306 698.5,385.5C 699.671,389.162 701.504,392.496 704,395.5C 704.333,397.5 704.667,399.5 705,401.5C 708.277,409.055 711.277,416.722 714,424.5C 716.039,425.978 716.872,427.978 716.5,430.5C 712.738,424.108 709.238,417.442 706,410.5C 702.794,401.717 699.294,393.05 695.5,384.5C 695.5,383.833 695.5,383.167 695.5,382.5 Z"/></g>
<g><path style="opacity:0.996" fill="#268c82" d="M 399.5,392.5 C 397.462,396.698 395.795,401.031 394.5,405.5C 389.849,412.793 385.182,420.126 380.5,427.5C 383.273,419.956 387.107,412.956 392,406.5C 393.201,401.096 395.701,396.43 399.5,392.5 Z"/></g>
<g><path style="opacity:0.996" fill="#239889" d="M 716.5,430.5 C 720.469,437.888 723.969,445.555 727,453.5C 727.61,456.827 728.11,460.161 728.5,463.5C 726.635,458.737 724.468,454.071 722,449.5C 719.71,443.346 717.876,437.012 716.5,430.5 Z"/></g>
<g><path style="opacity:0.996" fill="#0fdbb2" d="M 418.5,369.5 C 412.774,379.279 407.274,389.279 402,399.5C 399.483,401.341 397.483,403.674 396,406.5C 393.305,415.048 388.971,422.715 383,429.5C 379.332,439.186 375.332,448.853 371,458.5C 367.813,463.153 364.313,467.486 360.5,471.5C 360.343,470.127 360.51,468.793 361,467.5C 368.691,454.698 375.191,441.365 380.5,427.5C 385.182,420.126 389.849,412.793 394.5,405.5C 396.594,403.441 398.428,401.107 400,398.5C 403.059,390.051 406.892,382.051 411.5,374.5C 413.657,372.588 415.991,370.921 418.5,369.5 Z"/></g>
<g><path style="opacity:0.996" fill="#2f7171" d="M 734.5,473.5 C 741.059,482.997 744.892,493.664 746,505.5C 749.789,516.802 753.623,528.136 757.5,539.5C 760.955,552.625 763.955,565.625 766.5,578.5C 763.236,573.784 761.736,568.45 762,562.5C 760.629,557.536 758.796,552.869 756.5,548.5C 756.59,545.848 755.924,543.515 754.5,541.5C 753.847,532.878 751.347,524.878 747,517.5C 742.287,502.877 738.12,488.21 734.5,473.5 Z"/></g>
<g><path style="opacity:0.996" fill="#1bb299" d="M 728.5,463.5 C 730.313,466.928 732.313,470.261 734.5,473.5C 738.12,488.21 742.287,502.877 747,517.5C 751.347,524.878 753.847,532.878 754.5,541.5C 752.475,537.77 750.641,533.77 749,529.5C 742.733,507.337 735.899,485.337 728.5,463.5 Z"/></g>
<g><path style="opacity:0.996" fill="#20a390" d="M 344.5,503.5 C 340.558,516.27 335.558,528.604 329.5,540.5C 330.738,534.016 332.571,527.683 335,521.5C 338.587,517.957 340.587,513.624 341,508.5C 341.902,506.569 343.069,504.903 344.5,503.5 Z"/></g>
<g><path style="opacity:0.996" fill="#2d7a77" d="M 380.5,427.5 C 375.191,441.365 368.691,454.698 361,467.5C 360.51,468.793 360.343,470.127 360.5,471.5C 359.115,472.614 357.615,473.614 356,474.5C 352.16,482.848 349.16,491.515 347,500.5C 345.955,501.373 345.122,502.373 344.5,503.5C 343.069,504.903 341.902,506.569 341,508.5C 340.587,513.624 338.587,517.957 335,521.5C 332.571,527.683 330.738,534.016 329.5,540.5C 326.575,546.404 323.908,552.571 321.5,559C 315.793,574.955 310.793,591.122 306.5,607.5C 304.562,611.437 302.729,615.437 301,619.5C 297.411,629.856 294.744,640.522 293,651.5C 292.317,654.383 291.15,657.05 289.5,659.5C 288.395,667.346 286.561,675.013 284,682.5C 283.503,685.146 283.336,687.813 283.5,690.5C 279.163,708.568 274.83,726.568 270.5,744.5C 271.063,737.805 271.897,731.139 273,724.5C 280.667,690.774 288.333,657.107 296,623.5C 303.782,606.49 309.782,588.823 314,570.5C 316.153,566.186 318.153,561.853 320,557.5C 322.165,549.352 324.832,541.352 328,533.5C 331.438,528.498 334.105,523.165 336,517.5C 337.203,513.89 338.203,510.224 339,506.5C 347.415,490.474 355.082,474.141 362,457.5C 363.011,456.663 364.178,456.33 365.5,456.5C 369.666,447.502 373.832,438.502 378,429.5C 378.708,428.619 379.542,427.953 380.5,427.5 Z"/></g>
<g><path style="opacity:0.996" fill="#365a64" d="M 580.5,552.5 C 584.037,552.311 587.37,552.977 590.5,554.5C 590.47,555.497 590.97,556.164 592,556.5C 598.045,558.058 603.212,561.058 607.5,565.5C 613.754,567.298 619.421,570.131 624.5,574C 630.338,581.004 636.671,587.504 643.5,593.5C 656.035,610.9 664.368,630.234 668.5,651.5C 670.543,666.657 671.043,681.99 670,697.5C 667.767,707.773 665.933,718.107 664.5,728.5C 664.5,729.833 664.5,731.167 664.5,732.5C 658.498,744.122 652.498,755.789 646.5,767.5C 643.488,771.538 640.488,775.538 637.5,779.5C 629.059,785.228 620.392,790.728 611.5,796C 609.5,796.333 607.5,796.667 605.5,797C 601.49,798.711 597.824,800.878 594.5,803.5C 594.167,803.5 593.833,803.5 593.5,803.5C 577.642,806.131 561.642,807.131 545.5,806.5C 532.208,805.568 519.875,801.735 508.5,795C 503.002,793.079 497.668,790.912 492.5,788.5C 489.74,784.928 486.073,782.761 481.5,782C 479.237,780.383 477.237,778.55 475.5,776.5C 468.548,770.215 461.881,763.548 455.5,756.5C 452.62,750.782 449.12,745.448 445,740.5C 443.991,738.975 443.491,737.308 443.5,735.5C 442.5,735.5 441.5,735.5 440.5,735.5C 437.16,723.096 434.66,710.43 433,697.5C 432.333,682.833 432.333,668.167 433,653.5C 433.706,645.375 436.373,638.042 441,631.5C 441.414,627.649 442.248,623.983 443.5,620.5C 444.177,616.625 446.01,613.292 449,610.5C 451.07,602.333 455.57,595.999 462.5,591.5C 472.383,579.384 484.383,569.884 498.5,563C 501.517,558.238 505.851,556.238 511.5,557C 522.061,550.115 533.728,547.615 546.5,549.5C 552.833,549.667 559.167,549.833 565.5,550C 570.325,551.895 575.325,552.728 580.5,552.5 Z"/></g>
<g><path style="opacity:0.996" fill="#18c2a3" d="M 610.5,560.5 C 611.789,561.637 612.789,562.97 613.5,564.5C 611.738,564.643 610.071,564.309 608.5,563.5C 605.471,561.471 602.471,559.304 599.5,557C 596.348,556.605 593.348,555.772 590.5,554.5C 587.37,552.977 584.037,552.311 580.5,552.5C 576.344,550.527 572.011,548.694 567.5,547C 558.669,546.461 549.836,545.961 541,545.5C 536.432,545.477 531.932,545.977 527.5,547C 520.959,549.792 514.293,552.292 507.5,554.5C 517.553,546.391 529.22,542.725 542.5,543.5C 557.798,543.825 572.798,545.658 587.5,549C 588.337,550.011 588.67,551.178 588.5,552.5C 591.187,552.336 593.854,552.503 596.5,553C 601.137,555.803 605.804,558.303 610.5,560.5 Z"/></g>
<g><path style="opacity:0.996" fill="#2d7977" d="M 580.5,552.5 C 575.325,552.728 570.325,551.895 565.5,550C 559.167,549.833 552.833,549.667 546.5,549.5C 533.728,547.615 522.061,550.115 511.5,557C 505.851,556.238 501.517,558.238 498.5,563C 484.383,569.884 472.383,579.384 462.5,591.5C 467.025,582.649 473.692,575.816 482.5,571C 485.177,566.967 488.844,564.634 493.5,564C 497.68,561.304 501.68,558.47 505.5,555.5C 505.842,554.662 506.508,554.328 507.5,554.5C 514.293,552.292 520.959,549.792 527.5,547C 531.932,545.977 536.432,545.477 541,545.5C 549.836,545.961 558.669,546.461 567.5,547C 572.011,548.694 576.344,550.527 580.5,552.5 Z"/></g>
<g><path style="opacity:0.118" fill="#2e676a" d="M 784.5,513.5 C 789.901,534.294 795.401,554.961 801,575.5C 803.615,586.077 805.782,596.744 807.5,607.5C 806.732,608.263 806.232,609.263 806,610.5C 805.576,608.024 804.743,605.691 803.5,603.5C 802.583,597.225 800.916,591.225 798.5,585.5C 798.709,584.914 799.043,584.414 799.5,584C 799.193,578.842 797.526,574.175 794.5,570C 795.059,569.275 795.392,568.442 795.5,567.5C 794.861,564.525 794.361,561.525 794,558.5C 788.76,544.538 784.926,530.205 782.5,515.5C 782.855,514.478 783.522,513.811 784.5,513.5 Z"/></g>
<g><path style="opacity:0.996" fill="#29867e" d="M 590.5,554.5 C 593.348,555.772 596.348,556.605 599.5,557C 602.471,559.304 605.471,561.471 608.5,563.5C 610.071,564.309 611.738,564.643 613.5,564.5C 617.202,566.024 620.536,568.19 623.5,571C 629.004,577.671 635.004,583.837 641.5,589.5C 642.6,590.605 643.267,591.938 643.5,593.5C 636.671,587.504 630.338,581.004 624.5,574C 619.421,570.131 613.754,567.298 607.5,565.5C 603.212,561.058 598.045,558.058 592,556.5C 590.97,556.164 590.47,555.497 590.5,554.5 Z"/></g>
<g><path style="opacity:0.996" fill="#0ce2b7" d="M 610.5,560.5 C 611.873,560.343 613.207,560.51 614.5,561C 623.91,566.747 632.41,573.581 640,581.5C 643.62,586.789 647.62,591.789 652,596.5C 654.474,601.11 656.641,605.777 658.5,610.5C 653.519,604.551 649.019,598.218 645,591.5C 644.184,590.177 643.017,589.511 641.5,589.5C 635.004,583.837 629.004,577.671 623.5,571C 620.536,568.19 617.202,566.024 613.5,564.5C 612.789,562.97 611.789,561.637 610.5,560.5 Z"/></g>
<g><path style="opacity:0.996" fill="#1ca792" d="M 585.5,613.5 C 568.631,606.185 550.964,603.518 532.5,605.5C 532.611,604.883 532.944,604.383 533.5,604C 549.224,602.415 564.558,604.082 579.5,609C 582.106,609.792 584.106,611.292 585.5,613.5 Z"/></g>
<g><path style="opacity:0.996" fill="#0ad8b0" d="M 585.5,613.5 C 585.833,614.167 586.167,614.833 586.5,615.5C 569.639,608.591 551.972,606.091 533.5,608C 524.156,612.343 515.823,618.176 508.5,625.5C 510.557,621.933 513.223,618.766 516.5,616C 521.341,612.227 526.341,608.727 531.5,605.5C 531.833,605.5 532.167,605.5 532.5,605.5C 550.964,603.518 568.631,606.185 585.5,613.5 Z"/></g>
<g><path style="opacity:0.996" fill="#00f8c4" d="M 586.5,615.5 C 591.575,621.322 596.408,627.322 601,633.5C 601.233,635.78 602.066,637.78 603.5,639.5C 606.993,642.561 609.993,645.894 612.5,649.5C 612.087,653.183 612.921,656.517 615,659.5C 615.667,672.167 615.667,684.833 615,697.5C 612.765,706.633 608.931,714.967 603.5,722.5C 597.805,728.339 592.139,734.172 586.5,740C 584.709,740.415 583.376,741.415 582.5,743C 578.187,743.656 574.187,745.156 570.5,747.5C 565.533,748.662 560.533,748.829 555.5,748C 549.683,746.014 543.683,745.014 537.5,745C 534.623,743.873 531.623,743.206 528.5,743C 520.208,737.695 511.542,733.362 502.5,730C 498.922,725.287 496.088,720.121 494,714.5C 493.296,706.607 491.63,698.94 489,691.5C 487.962,686.524 488.628,681.858 491,677.5C 491.965,666.285 493.965,655.285 497,644.5C 499.982,640.202 502.149,635.536 503.5,630.5C 504.939,628.64 506.605,626.973 508.5,625.5C 515.823,618.176 524.156,612.343 533.5,608C 551.972,606.091 569.639,608.591 586.5,615.5 Z"/></g>
<g><path style="opacity:0.996" fill="#20a692" d="M 641.5,589.5 C 643.017,589.511 644.184,590.177 645,591.5C 649.019,598.218 653.519,604.551 658.5,610.5C 661.67,620.212 665.17,629.878 669,639.5C 675.049,664.244 676.049,689.244 672,714.5C 671.722,715.416 671.222,716.082 670.5,716.5C 674.09,696.521 674.257,676.521 671,656.5C 670.243,654.685 669.41,653.019 668.5,651.5C 664.368,630.234 656.035,610.9 643.5,593.5C 643.267,591.938 642.6,590.605 641.5,589.5 Z"/></g>
<g><path style="opacity:0.996" fill="#20a491" d="M 756.5,548.5 C 758.796,552.869 760.629,557.536 762,562.5C 761.736,568.45 763.236,573.784 766.5,578.5C 769.029,590.916 771.862,603.249 775,615.5C 775.498,618.482 775.665,621.482 775.5,624.5C 774.849,623.909 774.182,623.243 773.5,622.5C 772.895,619.696 772.062,617.029 771,614.5C 768.858,603.271 766.858,591.938 765,580.5C 762.504,573.107 760.004,565.774 757.5,558.5C 756.676,555.236 756.342,551.902 756.5,548.5 Z"/></g>
<g><path style="opacity:0.996" fill="#0fdcb3" d="M 658.5,610.5 C 659.496,610.414 660.329,610.748 661,611.5C 666.844,622.225 670.844,633.559 673,645.5C 678.344,673.558 677.511,701.391 670.5,729C 666.727,736.759 662.561,744.259 658,751.5C 657.184,755.33 655.851,758.996 654,762.5C 651.078,767.097 647.744,771.43 644,775.5C 638.146,780.356 632.646,785.523 627.5,791C 622.645,792.52 618.978,795.52 616.5,800C 612.11,801.355 607.777,803.022 603.5,805C 601.167,805.333 598.833,805.667 596.5,806C 596.002,807.158 595.169,807.991 594,808.5C 572.564,813.808 551.064,813.808 529.5,808.5C 529.5,807.5 529.5,806.5 529.5,805.5C 535.859,807.872 542.525,809.038 549.5,809C 558.833,809.667 568.167,809.667 577.5,809C 579.058,808.79 580.391,808.29 581.5,807.5C 585.75,806.984 589.75,805.651 593.5,803.5C 593.833,803.5 594.167,803.5 594.5,803.5C 600.276,801.188 606.276,799.354 612.5,798C 616.873,794.814 621.54,792.147 626.5,790C 629.404,785.593 633.071,782.093 637.5,779.5C 640.488,775.538 643.488,771.538 646.5,767.5C 648.576,764.861 650.742,762.194 653,759.5C 657.732,750.78 661.565,741.78 664.5,732.5C 664.5,731.167 664.5,729.833 664.5,728.5C 666.498,724.537 668.498,720.537 670.5,716.5C 671.222,716.082 671.722,715.416 672,714.5C 676.049,689.244 675.049,664.244 669,639.5C 665.17,629.878 661.67,620.212 658.5,610.5 Z"/></g>
<g><path style="opacity:0.996" fill="#2d7473" d="M 522.5,608.5 C 515.87,615.124 508.87,621.457 501.5,627.5C 498.956,632.352 496.123,637.018 493,641.5C 491.253,649.298 489.253,656.965 487,664.5C 486.173,677.007 486.34,689.34 487.5,701.5C 487.833,704.167 488.167,706.833 488.5,709.5C 487.069,708.097 485.902,706.431 485,704.5C 482.464,682.013 484.964,660.18 492.5,639C 493.535,637.726 494.702,636.56 496,635.5C 496.133,632.475 497.133,629.808 499,627.5C 502.167,625.667 504.667,623.167 506.5,620C 511.732,615.92 517.066,612.087 522.5,608.5 Z"/></g>
<g><path style="opacity:0.996" fill="#18bda0" d="M 505.5,555.5 C 501.68,558.47 497.68,561.304 493.5,564C 488.844,564.634 485.177,566.967 482.5,571C 473.692,575.816 467.025,582.649 462.5,591.5C 455.57,595.999 451.07,602.333 449,610.5C 446.01,613.292 444.177,616.625 443.5,620.5C 442.542,620.953 441.708,621.619 441,622.5C 437.268,632.363 433.934,642.363 431,652.5C 428.734,672.937 429.234,693.27 432.5,713.5C 431.849,712.909 431.182,712.243 430.5,711.5C 424.226,676.853 428.06,643.52 442,611.5C 444.573,607.624 447.739,604.291 451.5,601.5C 454.41,595.761 457.91,590.428 462,585.5C 467.854,580.644 473.354,575.477 478.5,570C 486.461,563.022 495.461,558.189 505.5,555.5 Z"/></g>
<g><path style="opacity:0.996" fill="#0ed3ad" d="M 586.5,615.5 C 592.359,618.846 597.526,623.18 602,628.5C 605.646,635.346 609.146,642.346 612.5,649.5C 609.993,645.894 606.993,642.561 603.5,639.5C 602.066,637.78 601.233,635.78 601,633.5C 596.408,627.322 591.575,621.322 586.5,615.5 Z"/></g>
<g><path style="opacity:0.996" fill="#2c7a77" d="M 610.5,720.5 C 612.829,715.896 614.162,710.896 614.5,705.5C 615.222,705.082 615.722,704.416 616,703.5C 617.005,696.337 617.838,689.17 618.5,682C 617.913,674.147 617.079,666.313 616,658.5C 614.772,655.402 613.606,652.402 612.5,649.5C 609.146,642.346 605.646,635.346 602,628.5C 597.526,623.18 592.359,618.846 586.5,615.5C 586.167,614.833 585.833,614.167 585.5,613.5C 584.106,611.292 582.106,609.792 579.5,609C 564.558,604.082 549.224,602.415 533.5,604C 532.944,604.383 532.611,604.883 532.5,605.5C 532.167,605.5 531.833,605.5 531.5,605.5C 528.318,606.03 525.318,607.03 522.5,608.5C 525.739,605.675 529.406,603.508 533.5,602C 552.242,599.186 569.909,601.853 586.5,610C 598.692,618.842 607.859,630.009 614,643.5C 614.333,646.167 614.667,648.833 615,651.5C 617.934,656.451 619.934,661.785 621,667.5C 621.832,677.849 621.666,688.183 620.5,698.5C 618.512,706.473 615.179,713.806 610.5,720.5 Z"/></g>
<g><path style="opacity:0.996" fill="#17c0a2" d="M 306.5,607.5 C 299.148,635.319 291.481,662.986 283.5,690.5C 283.336,687.813 283.503,685.146 284,682.5C 286.561,675.013 288.395,667.346 289.5,659.5C 291.15,657.05 292.317,654.383 293,651.5C 294.744,640.522 297.411,629.856 301,619.5C 302.729,615.437 304.562,611.437 306.5,607.5 Z"/></g>
<g><path style="opacity:0.996" fill="#0de1b6" d="M 360.5,471.5 C 360.436,475.22 359.936,478.886 359,482.5C 354.979,490.541 350.979,498.541 347,506.5C 343.819,515.522 340.652,524.522 337.5,533.5C 336.167,533.5 334.833,533.5 333.5,533.5C 333.66,535.199 333.494,536.866 333,538.5C 330.306,545.211 327.64,551.878 325,558.5C 324.226,562.147 323.559,565.814 323,569.5C 316.544,586.2 310.878,603.2 306,620.5C 305.333,621.833 304.333,622.833 303,623.5C 302.723,629.376 301.723,635.043 300,640.5C 296.245,651.931 293.245,663.598 291,675.5C 288.085,679.653 286.751,684.32 287,689.5C 285.308,692.74 284.141,696.073 283.5,699.5C 283.5,696.5 283.5,693.5 283.5,690.5C 291.481,662.986 299.148,635.319 306.5,607.5C 310.793,591.122 315.793,574.955 321.5,559C 323.908,552.571 326.575,546.404 329.5,540.5C 335.558,528.604 340.558,516.27 344.5,503.5C 345.122,502.373 345.955,501.373 347,500.5C 349.16,491.515 352.16,482.848 356,474.5C 357.615,473.614 359.115,472.614 360.5,471.5 Z"/></g>
<g><path style="opacity:0.996" fill="#1ea591" d="M 531.5,605.5 C 526.341,608.727 521.341,612.227 516.5,616C 513.223,618.766 510.557,621.933 508.5,625.5C 506.605,626.973 504.939,628.64 503.5,630.5C 502.185,631.476 500.852,632.476 499.5,633.5C 497.873,636.957 496.04,640.29 494,643.5C 493.064,652.675 491.397,661.675 489,670.5C 487.774,680.797 487.274,691.13 487.5,701.5C 486.34,689.34 486.173,677.007 487,664.5C 489.253,656.965 491.253,649.298 493,641.5C 496.123,637.018 498.956,632.352 501.5,627.5C 508.87,621.457 515.87,615.124 522.5,608.5C 525.318,607.03 528.318,606.03 531.5,605.5 Z"/></g>
<g><path style="opacity:0.996" fill="#2e7272" d="M 780.5,644.5 C 783.157,654.386 785.991,664.386 789,674.5C 789.333,680.5 789.667,686.5 790,692.5C 790.746,698.986 792.079,705.319 794,711.5C 794.5,718.158 794.666,724.825 794.5,731.5C 794.167,731.5 793.833,731.5 793.5,731.5C 790.924,713.894 788.758,696.227 787,678.5C 786.562,675.624 785.562,672.957 784,670.5C 783.021,661.78 781.854,653.113 780.5,644.5 Z"/></g>
<g><path style="opacity:0.996" fill="#2b7d79" d="M 668.5,651.5 C 669.41,653.019 670.243,654.685 671,656.5C 674.257,676.521 674.09,696.521 670.5,716.5C 668.498,720.537 666.498,724.537 664.5,728.5C 665.933,718.107 667.767,707.773 670,697.5C 671.043,681.99 670.543,666.657 668.5,651.5 Z"/></g>
<g><path style="opacity:0.602" fill="#2e6b6d" d="M 808.5,608.5 C 822.55,667.509 831.884,727.509 836.5,788.5C 836.565,788.938 836.399,789.272 836,789.5C 834.243,784.963 832.91,780.296 832,775.5C 827.844,734.401 821.844,693.735 814,653.5C 812.68,642.341 810.18,631.341 806.5,620.5C 807.109,616.365 807.776,612.365 808.5,608.5 Z"/></g>
<g><path style="opacity:0.996" fill="#16c0a2" d="M 283.5,690.5 C 283.5,693.5 283.5,696.5 283.5,699.5C 283.5,699.833 283.5,700.167 283.5,700.5C 282.883,700.611 282.383,700.944 282,701.5C 276.954,726.372 272.121,751.039 267.5,775.5C 267.536,770.07 268.203,764.737 269.5,759.5C 269.413,754.463 269.746,749.463 270.5,744.5C 274.83,726.568 279.163,708.568 283.5,690.5 Z"/></g>
<g><path style="opacity:0.996" fill="#1da28f" d="M 614.5,705.5 C 614.162,710.896 612.829,715.896 610.5,720.5C 602.639,731.056 592.973,739.556 581.5,746C 579.959,747.371 578.625,748.871 577.5,750.5C 576.167,750.5 574.833,750.5 573.5,750.5C 584.767,743.264 595.267,734.931 605,725.5C 608.527,719.542 611.194,713.209 613,706.5C 613.383,705.944 613.883,705.611 614.5,705.5 Z"/></g>
<g><path style="opacity:0.996" fill="#0cd8b1" d="M 503.5,630.5 C 502.149,635.536 499.982,640.202 497,644.5C 493.965,655.285 491.965,666.285 491,677.5C 488.628,681.858 487.962,686.524 489,691.5C 491.63,698.94 493.296,706.607 494,714.5C 496.088,720.121 498.922,725.287 502.5,730C 511.542,733.362 520.208,737.695 528.5,743C 531.623,743.206 534.623,743.873 537.5,745C 543.683,745.014 549.683,746.014 555.5,748C 560.533,748.829 565.533,748.662 570.5,747.5C 574.187,745.156 578.187,743.656 582.5,743C 583.376,741.415 584.709,740.415 586.5,740C 592.139,734.172 597.805,728.339 603.5,722.5C 608.931,714.967 612.765,706.633 615,697.5C 615.667,684.833 615.667,672.167 615,659.5C 612.921,656.517 612.087,653.183 612.5,649.5C 613.606,652.402 614.772,655.402 616,658.5C 617.079,666.313 617.913,674.147 618.5,682C 617.838,689.17 617.005,696.337 616,703.5C 615.722,704.416 615.222,705.082 614.5,705.5C 613.883,705.611 613.383,705.944 613,706.5C 611.194,713.209 608.527,719.542 605,725.5C 595.267,734.931 584.767,743.264 573.5,750.5C 559.13,749.717 544.797,748.384 530.5,746.5C 525.387,745.295 520.387,743.795 515.5,742C 513.842,738.832 511.175,737.165 507.5,737C 504.333,733.833 501.167,730.667 498,727.5C 495.294,721.183 492.128,715.183 488.5,709.5C 488.167,706.833 487.833,704.167 487.5,701.5C 487.274,691.13 487.774,680.797 489,670.5C 491.397,661.675 493.064,652.675 494,643.5C 496.04,640.29 497.873,636.957 499.5,633.5C 500.852,632.476 502.185,631.476 503.5,630.5 Z"/></g>
<g><path style="opacity:0.996" fill="#2f6f70" d="M 488.5,709.5 C 492.128,715.183 495.294,721.183 498,727.5C 501.167,730.667 504.333,733.833 507.5,737C 511.175,737.165 513.842,738.832 515.5,742C 520.387,743.795 525.387,745.295 530.5,746.5C 543.601,751.442 557.268,753.275 571.5,752C 572.416,751.722 573.082,751.222 573.5,750.5C 574.833,750.5 576.167,750.5 577.5,750.5C 576.319,752.067 574.653,752.901 572.5,753C 544.351,757.431 519.517,750.598 498,732.5C 494.994,726.798 491.994,721.131 489,715.5C 488.505,713.527 488.338,711.527 488.5,709.5 Z"/></g>
<g><path style="opacity:0.996" fill="#1f9f8d" d="M 530.5,746.5 C 544.797,748.384 559.13,749.717 573.5,750.5C 573.082,751.222 572.416,751.722 571.5,752C 557.268,753.275 543.601,751.442 530.5,746.5 Z"/></g>
<g><path style="opacity:0.996" fill="#258f84" d="M 664.5,732.5 C 661.565,741.78 657.732,750.78 653,759.5C 650.742,762.194 648.576,764.861 646.5,767.5C 652.498,755.789 658.498,744.122 664.5,732.5 Z"/></g>
<g><path style="opacity:0.996" fill="#278d83" d="M 443.5,620.5 C 442.248,623.983 441.414,627.649 441,631.5C 436.373,638.042 433.706,645.375 433,653.5C 432.333,668.167 432.333,682.833 433,697.5C 434.66,710.43 437.16,723.096 440.5,735.5C 441.5,735.5 442.5,735.5 443.5,735.5C 443.491,737.308 443.991,738.975 445,740.5C 449.12,745.448 452.62,750.782 455.5,756.5C 461.881,763.548 468.548,770.215 475.5,776.5C 473.195,775.213 470.862,773.88 468.5,772.5C 464.479,767.812 460.146,763.479 455.5,759.5C 450.136,752.638 444.97,745.638 440,738.5C 436.414,730.487 433.914,722.154 432.5,713.5C 429.234,693.27 428.734,672.937 431,652.5C 433.934,642.363 437.268,632.363 441,622.5C 441.708,621.619 442.542,620.953 443.5,620.5 Z"/></g>
<g><path style="opacity:0.996" fill="#2c7775" d="M 270.5,744.5 C 269.746,749.463 269.413,754.463 269.5,759.5C 268.462,762.429 267.296,765.429 266,768.5C 264.017,788.649 261.85,808.649 259.5,828.5C 260.483,801.61 263.317,774.943 268,748.5C 268.934,747.142 269.768,745.808 270.5,744.5 Z"/></g>
<g><path style="opacity:0.996" fill="#16c6a6" d="M 455.5,759.5 C 460.146,763.479 464.479,767.812 468.5,772.5C 470.862,773.88 473.195,775.213 475.5,776.5C 477.237,778.55 479.237,780.383 481.5,782C 486.073,782.761 489.74,784.928 492.5,788.5C 487.839,788.251 483.506,786.918 479.5,784.5C 471.654,777.636 463.821,770.636 456,763.5C 455.51,762.207 455.343,760.873 455.5,759.5 Z"/></g>
<g><path style="opacity:0.996" fill="#20a08e" d="M 269.5,759.5 C 268.203,764.737 267.536,770.07 267.5,775.5C 266.367,786.494 265.367,797.494 264.5,808.5C 262.898,815.288 261.731,822.288 261,829.5C 260.847,843.865 260.18,858.198 259,872.5C 258.333,894.5 258.333,916.5 259,938.5C 259.172,945.013 259.672,951.347 260.5,957.5C 260.334,965.174 260.5,972.841 261,980.5C 263.046,995.099 264.379,1009.77 265,1024.5C 266.585,1034.85 268.085,1045.18 269.5,1055.5C 266.893,1045.79 265.059,1035.79 264,1025.5C 257.542,963.987 255.708,902.32 258.5,840.5C 259.272,836.548 259.605,832.548 259.5,828.5C 261.85,808.649 264.017,788.649 266,768.5C 267.296,765.429 268.462,762.429 269.5,759.5 Z"/></g>
<g><path style="opacity:0.996" fill="#16c4a4" d="M 757.5,558.5 C 760.004,565.774 762.504,573.107 765,580.5C 766.858,591.938 768.858,603.271 771,614.5C 772.062,617.029 772.895,619.696 773.5,622.5C 774.182,623.243 774.849,623.909 775.5,624.5C 776.88,631.133 778.547,637.8 780.5,644.5C 781.854,653.113 783.021,661.78 784,670.5C 785.562,672.957 786.562,675.624 787,678.5C 788.758,696.227 790.924,713.894 793.5,731.5C 795.262,760.907 797.762,790.241 801,819.5C 801.986,871.198 801.486,922.864 799.5,974.5C 799.167,974.5 798.833,974.5 798.5,974.5C 801.021,898.378 799.188,822.378 793,746.5C 791.029,733.55 789.362,720.55 788,707.5C 785.638,700.357 784.305,693.023 784,685.5C 783.586,685.043 783.086,684.709 782.5,684.5C 781.764,672.1 780.598,659.766 779,647.5C 776.634,640.716 774.467,633.882 772.5,627C 768.21,604.008 763.21,581.175 757.5,558.5 Z"/></g>
<g><path style="opacity:0.996" fill="#259185" d="M 637.5,779.5 C 633.071,782.093 629.404,785.593 626.5,790C 621.54,792.147 616.873,794.814 612.5,798C 606.276,799.354 600.276,801.188 594.5,803.5C 597.824,800.878 601.49,798.711 605.5,797C 607.5,796.667 609.5,796.333 611.5,796C 620.392,790.728 629.059,785.228 637.5,779.5 Z"/></g>
<g><path style="opacity:0.996" fill="#18ba9e" d="M 492.5,788.5 C 497.668,790.912 503.002,793.079 508.5,795C 519.875,801.735 532.208,805.568 545.5,806.5C 550.748,808.022 556.248,808.689 562,808.5C 568.51,808.268 575.01,807.934 581.5,807.5C 580.391,808.29 579.058,808.79 577.5,809C 568.167,809.667 558.833,809.667 549.5,809C 542.525,809.038 535.859,807.872 529.5,805.5C 520.808,802.857 512.141,800.024 503.5,797C 499.765,794.147 496.098,791.313 492.5,788.5 Z"/></g>
<g><path style="opacity:0.996" fill="#268e84" d="M 593.5,803.5 C 589.75,805.651 585.75,806.984 581.5,807.5C 575.01,807.934 568.51,808.268 562,808.5C 556.248,808.689 550.748,808.022 545.5,806.5C 561.642,807.131 577.642,806.131 593.5,803.5 Z"/></g>
<g><path style="opacity:0.996" fill="#11cfab" d="M 264.5,808.5 C 261.06,858.086 259.727,907.753 260.5,957.5C 259.672,951.347 259.172,945.013 259,938.5C 258.333,916.5 258.333,894.5 259,872.5C 260.18,858.198 260.847,843.865 261,829.5C 261.731,822.288 262.898,815.288 264.5,808.5 Z"/></g>
<g><path style="opacity:0.357" fill="#2b7070" d="M 837.5,790.5 C 838.767,812.51 840.1,834.51 841.5,856.5C 840.611,860.822 839.944,865.322 839.5,870C 840.757,890.164 840.757,910.33 839.5,930.5C 838.615,894.331 837.781,857.998 837,821.5C 835.479,811.543 834.813,801.543 835,791.5C 835.671,790.748 836.504,790.414 837.5,790.5 Z"/></g>
<g><path style="opacity:0.012" fill="#1ba292" d="M 841.5,856.5 C 841.751,889.845 841.417,923.178 840.5,956.5C 839.475,955.626 838.808,954.459 838.5,953C 838.645,947.366 839.312,941.7 840.5,936C 839.62,934.644 839.286,933.144 839.5,931.5C 839.5,931.167 839.5,930.833 839.5,930.5C 840.757,910.33 840.757,890.164 839.5,870C 839.944,865.322 840.611,860.822 841.5,856.5 Z"/></g>
<g><path style="opacity:0.996" fill="#219f8d" d="M 516.5,929.5 C 533.264,930.346 549.931,932.013 566.5,934.5C 573.609,936.806 580.942,938.639 588.5,940C 590.233,941.189 591.9,942.356 593.5,943.5C 568.189,937.092 542.523,932.426 516.5,929.5 Z"/></g>
<g><path style="opacity:0.996" fill="#306b6e" d="M 516.5,929.5 C 542.523,932.426 568.189,937.092 593.5,943.5C 594.833,943.5 596.167,943.5 597.5,943.5C 597.343,944.873 597.51,946.207 598,947.5C 602.447,953.426 606.614,959.426 610.5,965.5C 610.5,966.167 610.5,966.833 610.5,967.5C 612.921,974.64 614.921,981.974 616.5,989.5C 614.732,987.078 613.232,984.412 612,981.5C 610.732,975.509 608.399,969.842 605,964.5C 602.826,957.322 598.993,951.155 593.5,946C 585.544,943.707 577.544,941.707 569.5,940C 565.833,939.667 562.167,939.333 558.5,939C 556.956,938.71 555.623,938.044 554.5,937C 537.105,934.55 519.605,932.717 502,931.5C 500.833,931.833 499.667,932.167 498.5,932.5C 495.835,936.66 492.669,940.327 489,943.5C 488.275,945.949 487.275,948.283 486,950.5C 484.512,990.816 483.178,1031.15 482,1071.5C 481.79,1077.4 480.956,1083.07 479.5,1088.5C 480.597,1059.18 481.264,1029.85 481.5,1000.5C 481.5,999.833 481.5,999.167 481.5,998.5C 483.25,979.537 484.916,960.537 486.5,941.5C 490.757,938.35 494.09,934.35 496.5,929.5C 503.141,928.707 509.808,928.707 516.5,929.5 Z"/></g>
<g><path style="opacity:0.996" fill="#19bda0" d="M 597.5,943.5 C 599.481,945.144 601.481,946.81 603.5,948.5C 607.435,953.508 609.768,959.174 610.5,965.5C 606.614,959.426 602.447,953.426 598,947.5C 597.51,946.207 597.343,944.873 597.5,943.5 Z"/></g>
<g><path style="opacity:0.996" fill="#258e83" d="M 793.5,731.5 C 793.833,731.5 794.167,731.5 794.5,731.5C 796.388,751.826 798.055,772.16 799.5,792.5C 799.359,801.265 800.192,809.932 802,818.5C 802.667,861.833 802.667,905.167 802,948.5C 801.742,957.372 800.909,966.038 799.5,974.5C 801.486,922.864 801.986,871.198 801,819.5C 797.762,790.241 795.262,760.907 793.5,731.5 Z"/></g>
<g><path style="opacity:0.996" fill="#268e83" d="M 486.5,941.5 C 484.916,960.537 483.25,979.537 481.5,998.5C 481.334,981.48 481.834,964.48 483,947.5C 483.6,945.09 484.766,943.09 486.5,941.5 Z"/></g>
<g><path style="opacity:0.996" fill="#2f7071" d="M 799.5,792.5 C 802.265,806.555 803.765,820.889 804,835.5C 804.667,871.833 804.667,908.167 804,944.5C 803.774,955.577 802.774,966.577 801,977.5C 800.667,989.167 800.333,1000.83 800,1012.5C 799.71,1014.04 799.044,1015.38 798,1016.5C 797.497,1032.88 796.33,1049.22 794.5,1065.5C 794.349,1068.12 793.515,1070.45 792,1072.5C 791.667,1078.17 791.333,1083.83 791,1089.5C 789.179,1096.22 787.679,1102.89 786.5,1109.5C 789.286,1083.79 792.452,1058.12 796,1032.5C 796.5,1024.84 796.666,1017.17 796.5,1009.5C 797.122,998.164 797.789,986.83 798.5,975.5C 798.5,975.167 798.5,974.833 798.5,974.5C 798.833,974.5 799.167,974.5 799.5,974.5C 800.909,966.038 801.742,957.372 802,948.5C 802.667,905.167 802.667,861.833 802,818.5C 800.192,809.932 799.359,801.265 799.5,792.5 Z"/></g>
<g><path style="opacity:0.52" fill="#2e6a6c" d="M 839.5,931.5 C 839.286,933.144 839.62,934.644 840.5,936C 839.312,941.7 838.645,947.366 838.5,953C 838.808,954.459 839.475,955.626 840.5,956.5C 839.433,961.782 839.267,967.115 840,972.5C 855.704,988.703 871.204,1005.04 886.5,1021.5C 885.448,1021.65 884.448,1021.48 883.5,1021C 880.319,1018.91 877.319,1016.57 874.5,1014C 869.946,1008.11 864.779,1002.95 859,998.5C 856.54,995.875 854.706,992.875 853.5,989.5C 847.215,985.971 841.881,981.305 837.5,975.5C 836.334,964.849 836.168,954.182 837,943.5C 837.705,939.335 838.539,935.335 839.5,931.5 Z"/></g>
<g><path style="opacity:0.996" fill="#0fdbb3" d="M 610.5,965.5 C 611.482,966.141 612.482,966.807 613.5,967.5C 614.188,971.209 615.688,974.542 618,977.5C 618.882,980.789 619.548,984.123 620,987.5C 620.624,989.754 621.957,991.421 624,992.5C 625.506,998.841 627.006,1005.17 628.5,1011.5C 630.647,1016.01 632.481,1020.67 634,1025.5C 636.392,1037.27 639.059,1048.93 642,1060.5C 642.499,1064.82 642.666,1069.15 642.5,1073.5C 642.167,1073.5 641.833,1073.5 641.5,1073.5C 641.746,1069.15 640.746,1065.15 638.5,1061.5C 637.479,1054.19 636.313,1046.86 635,1039.5C 633.487,1034.31 631.654,1029.31 629.5,1024.5C 624.94,1009.31 620.44,993.972 616,978.5C 614.428,974.563 612.595,970.896 610.5,967.5C 610.5,966.833 610.5,966.167 610.5,965.5 Z"/></g>
<g><path style="opacity:0.996" fill="#2a837d" d="M 610.5,967.5 C 612.595,970.896 614.428,974.563 616,978.5C 620.44,993.972 624.94,1009.31 629.5,1024.5C 629.5,1025.83 629.5,1027.17 629.5,1028.5C 628.255,1024.93 626.421,1021.6 624,1018.5C 621.742,1008.77 619.242,999.1 616.5,989.5C 614.921,981.974 612.921,974.64 610.5,967.5 Z"/></g>
<g><path style="opacity:0.996" fill="#306c6e" d="M 258.5,840.5 C 255.708,902.32 257.542,963.987 264,1025.5C 265.059,1035.79 266.893,1045.79 269.5,1055.5C 270.055,1066.28 271.388,1076.94 273.5,1087.5C 272.685,1086.57 271.852,1085.57 271,1084.5C 269.535,1071.95 267.202,1059.61 264,1047.5C 260.808,1021.95 258.808,996.285 258,970.5C 257.798,968.744 257.298,967.078 256.5,965.5C 255.333,925.504 255.167,885.504 256,845.5C 256.099,843.347 256.933,841.681 258.5,840.5 Z"/></g>
<g><path style="opacity:0.996" fill="#14c7a6" d="M 798.5,975.5 C 797.789,986.83 797.122,998.164 796.5,1009.5C 795.671,1016.66 795.171,1023.99 795,1031.5C 794.397,1038.67 793.064,1045.67 791,1052.5C 790.535,1068.48 788.701,1084.15 785.5,1099.5C 786.926,1085.52 788.259,1071.52 789.5,1057.5C 790.017,1045.38 791.517,1033.38 794,1021.5C 794.294,1009.48 794.961,997.477 796,985.5C 796.311,981.91 797.144,978.577 798.5,975.5 Z"/></g>
<g><path style="opacity:0.996" fill="#2f6d6f" d="M 533.5,1065.5 C 530.66,1059.58 528.493,1053.25 527,1046.5C 526.617,1045.94 526.117,1045.61 525.5,1045.5C 523.245,1042.55 521.578,1039.22 520.5,1035.5C 519.758,1032.21 517.925,1030.88 515,1031.5C 512.579,1089.17 510.079,1146.84 507.5,1204.5C 506.467,1207.99 505.633,1211.65 505,1215.5C 504.041,1249.87 504.708,1284.2 507,1318.5C 507.383,1319.06 507.883,1319.39 508.5,1319.5C 509.642,1321.97 511.642,1322.97 514.5,1322.5C 516.986,1310.3 517.986,1297.97 517.5,1285.5C 520,1250.9 523.166,1216.23 527,1181.5C 527.169,1168.33 527.669,1155.33 528.5,1142.5C 528.33,1170.52 527.497,1198.52 526,1226.5C 524.294,1244.57 522.294,1262.57 520,1280.5C 519.832,1293.87 519.166,1307.2 518,1320.5C 517.516,1325.99 514.683,1327.82 509.5,1326C 507.458,1322.62 506.125,1318.96 505.5,1315C 505.272,1311.13 504.772,1307.3 504,1303.5C 502.967,1255.11 503.634,1206.78 506,1158.5C 507.244,1155.36 507.911,1152.03 508,1148.5C 508.333,1127.5 508.667,1106.5 509,1085.5C 510.965,1066.92 512.131,1048.26 512.5,1029.5C 515.08,1027.01 517.747,1027.01 520.5,1029.5C 522.192,1031.36 523.692,1033.36 525,1035.5C 526.548,1042.15 528.882,1048.48 532,1054.5C 532.42,1058.19 532.92,1061.86 533.5,1065.5 Z"/></g>
<g><path style="opacity:0.996" fill="#1caf98" d="M 629.5,1024.5 C 631.654,1029.31 633.487,1034.31 635,1039.5C 636.313,1046.86 637.479,1054.19 638.5,1061.5C 635.746,1055.26 634.079,1048.59 633.5,1041.5C 633.36,1039.97 632.693,1038.97 631.5,1038.5C 630.419,1035.37 629.753,1032.04 629.5,1028.5C 629.5,1027.17 629.5,1025.83 629.5,1024.5 Z"/></g>
<g><path style="opacity:0.996" fill="#0de0b6" d="M 283.5,700.5 C 280.356,718.625 276.689,736.625 272.5,754.5C 263.434,826.146 260.6,898.146 264,970.5C 265.986,985.092 266.986,999.758 267,1014.5C 267.68,1022.29 269.013,1029.96 271,1037.5C 270.641,1045.52 271.974,1053.19 275,1060.5C 275.191,1069.96 276.358,1079.29 278.5,1088.5C 278.696,1090.29 279.529,1091.62 281,1092.5C 283.3,1104.84 285.3,1117.18 287,1129.5C 294.797,1149.78 299.63,1170.78 301.5,1192.5C 301.167,1192.5 300.833,1192.5 300.5,1192.5C 299.649,1184.04 297.315,1176.04 293.5,1168.5C 290.197,1154.64 287.364,1140.64 285,1126.5C 283.347,1120.1 281.514,1113.77 279.5,1107.5C 278.771,1094.78 276.437,1082.45 272.5,1070.5C 272.875,1065.09 271.875,1060.09 269.5,1055.5C 268.085,1045.18 266.585,1034.85 265,1024.5C 264.379,1009.77 263.046,995.099 261,980.5C 260.5,972.841 260.334,965.174 260.5,957.5C 259.727,907.753 261.06,858.086 264.5,808.5C 265.367,797.494 266.367,786.494 267.5,775.5C 272.121,751.039 276.954,726.372 282,701.5C 282.383,700.944 282.883,700.611 283.5,700.5 Z"/></g>
<g><path style="opacity:0.996" fill="#19b79c" d="M 272.5,1070.5 C 276.437,1082.45 278.771,1094.78 279.5,1107.5C 278.859,1104.07 277.692,1100.74 276,1097.5C 274.729,1088.52 273.562,1079.52 272.5,1070.5 Z"/></g>
<g><path style="opacity:0.996" fill="#28857d" d="M 631.5,1038.5 C 632.693,1038.97 633.36,1039.97 633.5,1041.5C 634.079,1048.59 635.746,1055.26 638.5,1061.5C 640.746,1065.15 641.746,1069.15 641.5,1073.5C 641.212,1086.15 639.545,1098.48 636.5,1110.5C 636.124,1103.68 636.957,1097.01 639,1090.5C 639.457,1075.32 637.29,1060.65 632.5,1046.5C 632.167,1043.83 631.833,1041.17 631.5,1038.5 Z"/></g>
<g><path style="opacity:0.996" fill="#239487" d="M 796.5,1009.5 C 796.666,1017.17 796.5,1024.84 796,1032.5C 792.452,1058.12 789.286,1083.79 786.5,1109.5C 785.158,1111.36 784.158,1113.36 783.5,1115.5C 783.364,1110.05 784.031,1104.72 785.5,1099.5C 788.701,1084.15 790.535,1068.48 791,1052.5C 793.064,1045.67 794.397,1038.67 795,1031.5C 795.171,1023.99 795.671,1016.66 796.5,1009.5 Z"/></g>
<g><path style="opacity:0.996" fill="#09e8ba" d="M 490.5,932.5 C 487.443,936.258 484.61,940.258 482,944.5C 480.804,950.419 480.138,956.419 480,962.5C 477.598,1018.15 475.598,1073.81 474,1129.5C 473.5,1152.16 473.333,1174.83 473.5,1197.5C 473.5,1203.83 473.5,1210.17 473.5,1216.5C 472.679,1219.64 472.179,1222.97 472,1226.5C 471.667,1242.83 471.333,1259.17 471,1275.5C 470.5,1276 470,1276.5 469.5,1277C 456.158,1277.49 442.825,1278.16 429.5,1279C 417.959,1281.5 406.292,1283.17 394.5,1284C 393.584,1284.28 392.918,1284.78 392.5,1285.5C 392.167,1285.5 391.833,1285.5 391.5,1285.5C 379.568,1286.59 367.902,1288.75 356.5,1292C 350.336,1299.18 344.169,1299.01 338,1291.5C 334.611,1286.63 332.444,1281.29 331.5,1275.5C 332.941,1279.81 335.108,1283.81 338,1287.5C 340.436,1291.11 343.603,1293.78 347.5,1295.5C 352.374,1292.8 357.374,1290.3 362.5,1288C 365.833,1287.67 369.167,1287.33 372.5,1287C 373.716,1285.26 375.382,1284.26 377.5,1284C 383.342,1283.85 389.008,1282.85 394.5,1281C 418.815,1278.5 443.149,1276.33 467.5,1274.5C 469.856,1170.07 473.356,1065.74 478,961.5C 477.684,952.357 480.017,944.024 485,936.5C 486.451,934.536 488.284,933.203 490.5,932.5 Z"/></g>
<g><path style="opacity:0.996" fill="#259487" d="M 269.5,1055.5 C 271.875,1060.09 272.875,1065.09 272.5,1070.5C 273.562,1079.52 274.729,1088.52 276,1097.5C 277.692,1100.74 278.859,1104.07 279.5,1107.5C 281.514,1113.77 283.347,1120.1 285,1126.5C 287.364,1140.64 290.197,1154.64 293.5,1168.5C 289.643,1160.73 287.476,1152.4 287,1143.5C 284.403,1135.64 282.403,1127.64 281,1119.5C 280,1117.5 279,1115.5 278,1113.5C 275.922,1104.82 274.422,1096.15 273.5,1087.5C 271.388,1076.94 270.055,1066.28 269.5,1055.5 Z"/></g>
<g><path style="opacity:0.996" fill="#18bb9f" d="M 566.5,934.5 C 549.931,932.013 533.264,930.346 516.5,929.5C 509.808,928.707 503.141,928.707 496.5,929.5C 494.09,934.35 490.757,938.35 486.5,941.5C 484.766,943.09 483.6,945.09 483,947.5C 481.834,964.48 481.334,981.48 481.5,998.5C 481.5,999.167 481.5,999.833 481.5,1000.5C 478.634,1066.16 475.967,1131.83 473.5,1197.5C 473.333,1174.83 473.5,1152.16 474,1129.5C 475.598,1073.81 477.598,1018.15 480,962.5C 480.138,956.419 480.804,950.419 482,944.5C 484.61,940.258 487.443,936.258 490.5,932.5C 492.534,931.452 493.867,929.786 494.5,927.5C 499.167,927.167 503.833,926.833 508.5,926.5C 521.76,928.191 535.093,929.358 548.5,930C 554.499,931.763 560.499,933.263 566.5,934.5 Z"/></g>
<g><path style="opacity:0.996" fill="#268a80" d="M 525.5,1045.5 C 526.117,1045.61 526.617,1045.94 527,1046.5C 528.493,1053.25 530.66,1059.58 533.5,1065.5C 532.681,1091.25 531.014,1116.92 528.5,1142.5C 527.669,1155.33 527.169,1168.33 527,1181.5C 523.166,1216.23 520,1250.9 517.5,1285.5C 518.062,1272.16 518.728,1258.83 519.5,1245.5C 520.134,1237.15 520.8,1228.82 521.5,1220.5C 522.309,1218.71 522.809,1216.71 523,1214.5C 524.787,1179.15 526.62,1143.82 528.5,1108.5C 529.323,1105.02 529.823,1101.36 530,1097.5C 530.667,1085.83 530.667,1074.17 530,1062.5C 528.94,1056.7 527.44,1051.03 525.5,1045.5 Z"/></g>
<g><path style="opacity:0.996" fill="#06e2b6" d="M 520.5,1035.5 C 521.578,1039.22 523.245,1042.55 525.5,1045.5C 527.44,1051.03 528.94,1056.7 530,1062.5C 530.667,1074.17 530.667,1085.83 530,1097.5C 529.823,1101.36 529.323,1105.02 528.5,1108.5C 526.334,1129.65 524.501,1150.98 523,1172.5C 522.679,1188.51 522.179,1204.51 521.5,1220.5C 520.8,1228.82 520.134,1237.15 519.5,1245.5C 518.215,1251.29 517.382,1257.29 517,1263.5C 516.011,1282.19 514.844,1300.85 513.5,1319.5C 510.95,1319.44 509.45,1318.11 509,1315.5C 508.333,1277.5 508.333,1239.5 509,1201.5C 511.146,1168.5 513.146,1135.5 515,1102.5C 515.333,1080.17 515.667,1057.83 516,1035.5C 517.49,1034.27 518.99,1034.27 520.5,1035.5 Z"/></g>
<g><path style="opacity:0.996" fill="#00f7c4" d="M 519.5,1043.5 C 520.79,1044.06 521.623,1045.06 522,1046.5C 522.955,1051.62 524.289,1056.62 526,1061.5C 526.667,1076.83 526.667,1092.17 526,1107.5C 524.277,1124.45 522.943,1141.45 522,1158.5C 521.667,1171.17 521.333,1183.83 521,1196.5C 520.333,1199.17 519.667,1201.83 519,1204.5C 518.667,1217.83 518.333,1231.17 518,1244.5C 517.587,1247.23 516.92,1249.9 516,1252.5C 515.086,1272.88 513.586,1293.22 511.5,1313.5C 510.333,1283.17 510.167,1252.84 511,1222.5C 512.833,1194.55 513.833,1166.55 514,1138.5C 515.174,1134.95 515.84,1131.29 516,1127.5C 516.333,1106.5 516.667,1085.5 517,1064.5C 518.076,1057.51 518.909,1050.51 519.5,1043.5 Z"/></g>
<g><path style="opacity:0.996" fill="#1ea994" d="M 641.5,1073.5 C 641.833,1073.5 642.167,1073.5 642.5,1073.5C 643.014,1075.62 643.347,1077.78 643.5,1080C 640.893,1092.69 639.226,1105.52 638.5,1118.5C 636.933,1119.68 636.099,1121.35 636,1123.5C 634.332,1139.5 632.665,1155.5 631,1171.5C 629.957,1173.83 629.124,1176.17 628.5,1178.5C 629.167,1171.17 629.833,1163.83 630.5,1156.5C 631.855,1140.95 633.855,1125.61 636.5,1110.5C 639.545,1098.48 641.212,1086.15 641.5,1073.5 Z"/></g>
<g><path style="opacity:0.996" fill="#0eddb4" d="M 789.5,1057.5 C 788.259,1071.52 786.926,1085.52 785.5,1099.5C 784.031,1104.72 783.364,1110.05 783.5,1115.5C 782.173,1124.14 781.173,1132.8 780.5,1141.5C 779.207,1142.84 778.374,1144.51 778,1146.5C 775.413,1160.36 772.079,1174.03 768,1187.5C 767.667,1192.17 767.333,1196.83 767,1201.5C 762.921,1216.4 759.421,1231.4 756.5,1246.5C 755.549,1247.92 755.216,1249.59 755.5,1251.5C 754.539,1254.05 753.206,1256.39 751.5,1258.5C 752.738,1248.78 754.238,1239.12 756,1229.5C 759.516,1214.08 763.516,1198.74 768,1183.5C 770.869,1168.62 773.202,1153.62 775,1138.5C 775.419,1137.33 776.085,1136.33 777,1135.5C 778.548,1123.65 780.882,1111.98 784,1100.5C 784.333,1093.17 784.667,1085.83 785,1078.5C 786.585,1071.38 788.085,1064.38 789.5,1057.5 Z"/></g>
<g><path style="opacity:0.996" fill="#2f7473" d="M 293.5,1168.5 C 297.315,1176.04 299.649,1184.04 300.5,1192.5C 302.295,1202.84 304.962,1212.84 308.5,1222.5C 304.205,1214.23 300.705,1205.56 298,1196.5C 296.099,1187.21 294.599,1177.88 293.5,1168.5 Z"/></g>
<g><path style="opacity:0.996" fill="#15b89d" d="M 528.5,1108.5 C 526.62,1143.82 524.787,1179.15 523,1214.5C 522.809,1216.71 522.309,1218.71 521.5,1220.5C 522.179,1204.51 522.679,1188.51 523,1172.5C 524.501,1150.98 526.334,1129.65 528.5,1108.5 Z"/></g>
<g><path style="opacity:0.996" fill="#258f84" d="M 630.5,1156.5 C 629.833,1163.83 629.167,1171.17 628.5,1178.5C 628.5,1179.83 628.5,1181.17 628.5,1182.5C 627.168,1186.26 626.335,1190.26 626,1194.5C 623.706,1213.78 621.706,1233.12 620,1252.5C 619.333,1262.17 619.333,1271.83 620,1281.5C 620.352,1283.25 620.852,1284.91 621.5,1286.5C 618.812,1285.98 617.312,1284.31 617,1281.5C 616.333,1276.5 616.333,1271.5 617,1266.5C 618.798,1248.52 620.465,1230.52 622,1212.5C 624.818,1196.62 626.818,1180.62 628,1164.5C 628.098,1161.48 628.932,1158.81 630.5,1156.5 Z"/></g>
<g><path style="opacity:0.996" fill="#0ce2b7" d="M 638.5,1118.5 C 635.713,1143.81 633.213,1169.14 631,1194.5C 630.946,1197.86 629.946,1200.86 628,1203.5C 627.667,1210.5 627.333,1217.5 627,1224.5C 626.901,1226.65 626.067,1228.32 624.5,1229.5C 625.984,1213.86 627.318,1198.19 628.5,1182.5C 628.5,1181.17 628.5,1179.83 628.5,1178.5C 629.124,1176.17 629.957,1173.83 631,1171.5C 632.665,1155.5 634.332,1139.5 636,1123.5C 636.099,1121.35 636.933,1119.68 638.5,1118.5 Z"/></g>
<g><path style="opacity:0.996" fill="#17b69b" d="M 520.5,1035.5 C 518.99,1034.27 517.49,1034.27 516,1035.5C 515.667,1057.83 515.333,1080.17 515,1102.5C 513.146,1135.5 511.146,1168.5 509,1201.5C 508.333,1239.5 508.333,1277.5 509,1315.5C 509.45,1318.11 510.95,1319.44 513.5,1319.5C 514.844,1300.85 516.011,1282.19 517,1263.5C 517.382,1257.29 518.215,1251.29 519.5,1245.5C 518.728,1258.83 518.062,1272.16 517.5,1285.5C 517.986,1297.97 516.986,1310.3 514.5,1322.5C 511.642,1322.97 509.642,1321.97 508.5,1319.5C 506.496,1281.21 506.162,1242.87 507.5,1204.5C 510.079,1146.84 512.579,1089.17 515,1031.5C 517.925,1030.88 519.758,1032.21 520.5,1035.5 Z"/></g>
<g><path style="opacity:0.996" fill="#229d8c" d="M 780.5,1141.5 C 777.467,1165.65 772.3,1189.32 765,1212.5C 764.172,1216.47 763.672,1220.47 763.5,1224.5C 761.158,1231.24 759.325,1238.24 758,1245.5C 757.617,1246.06 757.117,1246.39 756.5,1246.5C 759.421,1231.4 762.921,1216.4 767,1201.5C 767.333,1196.83 767.667,1192.17 768,1187.5C 772.079,1174.03 775.413,1160.36 778,1146.5C 778.374,1144.51 779.207,1142.84 780.5,1141.5 Z"/></g>
<g><path style="opacity:0.996" fill="#219d8d" d="M 300.5,1192.5 C 300.833,1192.5 301.167,1192.5 301.5,1192.5C 305.399,1202.3 308.732,1212.3 311.5,1222.5C 313.366,1228.77 315.032,1235.1 316.5,1241.5C 313.845,1235.21 311.178,1228.88 308.5,1222.5C 304.962,1212.84 302.295,1202.84 300.5,1192.5 Z"/></g>
<g><path style="opacity:0.996" fill="#18c6a6" d="M 311.5,1222.5 C 313.173,1223.34 314.34,1224.68 315,1226.5C 316.097,1234.43 318.764,1241.77 323,1248.5C 322.972,1252.72 324.305,1256.39 327,1259.5C 328.075,1263.77 328.575,1268.1 328.5,1272.5C 324.348,1266.86 321.848,1260.52 321,1253.5C 318.655,1249.81 317.155,1245.81 316.5,1241.5C 315.032,1235.1 313.366,1228.77 311.5,1222.5 Z"/></g>
<g><path style="opacity:0.996" fill="#258980" d="M 507.5,1204.5 C 506.162,1242.87 506.496,1281.21 508.5,1319.5C 507.883,1319.39 507.383,1319.06 507,1318.5C 504.708,1284.2 504.041,1249.87 505,1215.5C 505.633,1211.65 506.467,1207.99 507.5,1204.5 Z"/></g>
<g><path style="opacity:0.996" fill="#1ab59b" d="M 473.5,1216.5 C 473.351,1237.08 472.684,1257.58 471.5,1278C 445.115,1279.84 418.781,1282.34 392.5,1285.5C 392.918,1284.78 393.584,1284.28 394.5,1284C 406.292,1283.17 417.959,1281.5 429.5,1279C 442.825,1278.16 456.158,1277.49 469.5,1277C 470,1276.5 470.5,1276 471,1275.5C 471.333,1259.17 471.667,1242.83 472,1226.5C 472.179,1222.97 472.679,1219.64 473.5,1216.5 Z"/></g>
<g><path style="opacity:0.996" fill="#29837d" d="M 481.5,1000.5 C 481.264,1029.85 480.597,1059.18 479.5,1088.5C 476.565,1151.46 474.732,1214.46 474,1277.5C 473.097,1278.7 471.931,1279.53 470.5,1280C 449.754,1280.87 429.088,1282.54 408.5,1285C 401.477,1286.6 394.477,1288.27 387.5,1290C 384.183,1290.5 380.85,1290.67 377.5,1290.5C 381.921,1288.47 386.587,1286.8 391.5,1285.5C 391.833,1285.5 392.167,1285.5 392.5,1285.5C 418.781,1282.34 445.115,1279.84 471.5,1278C 472.684,1257.58 473.351,1237.08 473.5,1216.5C 473.5,1210.17 473.5,1203.83 473.5,1197.5C 475.967,1131.83 478.634,1066.16 481.5,1000.5 Z"/></g>
<g><path style="opacity:0.996" fill="#16c2a3" d="M 628.5,1182.5 C 627.318,1198.19 625.984,1213.86 624.5,1229.5C 621.128,1246.21 619.961,1263.21 621,1280.5C 621.219,1281.94 621.719,1283.27 622.5,1284.5C 638.41,1287.33 654.41,1289.83 670.5,1292C 687.404,1297.05 704.071,1302.38 720.5,1308C 722.724,1309.78 725.058,1311.28 727.5,1312.5C 706.967,1305.82 686.3,1299.32 665.5,1293C 650.85,1290.64 636.183,1288.47 621.5,1286.5C 620.852,1284.91 620.352,1283.25 620,1281.5C 619.333,1271.83 619.333,1262.17 620,1252.5C 621.706,1233.12 623.706,1213.78 626,1194.5C 626.335,1190.26 627.168,1186.26 628.5,1182.5 Z"/></g>
<g><path style="opacity:0.646" fill="#2e686a" d="M 983.5,1240.5 C 974.637,1269.2 964.97,1297.53 954.5,1325.5C 953.982,1324.42 953.648,1323.26 953.5,1322C 954.886,1318.31 955.72,1314.47 956,1310.5C 964.333,1287.14 972.667,1263.8 981,1240.5C 981.977,1239.23 982.811,1239.23 983.5,1240.5 Z"/></g>
<g><path style="opacity:0.996" fill="#20a793" d="M 328.5,1272.5 C 329.272,1273.69 330.272,1274.69 331.5,1275.5C 332.444,1281.29 334.611,1286.63 338,1291.5C 344.169,1299.01 350.336,1299.18 356.5,1292C 367.902,1288.75 379.568,1286.59 391.5,1285.5C 386.587,1286.8 381.921,1288.47 377.5,1290.5C 367.848,1290.44 359.515,1293.6 352.5,1300C 348.399,1300.48 344.399,1299.98 340.5,1298.5C 332.458,1291.71 328.458,1283.05 328.5,1272.5 Z"/></g>
<g><path style="opacity:0.996" fill="#306f70" d="M 632.5,1046.5 C 637.29,1060.65 639.457,1075.32 639,1090.5C 636.957,1097.01 636.124,1103.68 636.5,1110.5C 633.855,1125.61 631.855,1140.95 630.5,1156.5C 628.932,1158.81 628.098,1161.48 628,1164.5C 626.818,1180.62 624.818,1196.62 622,1212.5C 620.465,1230.52 618.798,1248.52 617,1266.5C 616.333,1271.5 616.333,1276.5 617,1281.5C 617.312,1284.31 618.812,1285.98 621.5,1286.5C 636.183,1288.47 650.85,1290.64 665.5,1293C 686.3,1299.32 706.967,1305.82 727.5,1312.5C 730.087,1314.64 733.087,1315.47 736.5,1315C 738.333,1312.17 740.166,1309.34 742,1306.5C 746.929,1288.25 751.429,1269.91 755.5,1251.5C 755.216,1249.59 755.549,1247.92 756.5,1246.5C 757.117,1246.39 757.617,1246.06 758,1245.5C 759.325,1238.24 761.158,1231.24 763.5,1224.5C 763.666,1228.51 763.499,1232.51 763,1236.5C 761.356,1243.45 759.689,1250.45 758,1257.5C 751.495,1275.75 746.162,1294.42 742,1313.5C 741.07,1315.55 739.57,1317.05 737.5,1318C 730.781,1316.98 724.114,1315.32 717.5,1313C 702.57,1307.36 687.57,1302.03 672.5,1297C 662.41,1295.43 652.41,1293.43 642.5,1291C 636.5,1290.67 630.5,1290.33 624.5,1290C 616.876,1287.43 613.543,1282.1 614.5,1274C 616.039,1262.61 616.872,1251.11 617,1239.5C 620.686,1212.89 624.019,1186.23 627,1159.5C 629.152,1151.75 630.152,1143.75 630,1135.5C 630.29,1133.96 630.956,1132.62 632,1131.5C 632.333,1125.83 632.667,1120.17 633,1114.5C 635.129,1107.37 636.129,1100.04 636,1092.5C 637.198,1088.43 638.031,1084.27 638.5,1080C 635.435,1069.05 633.435,1057.88 632.5,1046.5 Z"/></g>
<g><path style="opacity:0.996" fill="#1db199" d="M 755.5,1251.5 C 751.429,1269.91 746.929,1288.25 742,1306.5C 740.166,1309.34 738.333,1312.17 736.5,1315C 733.087,1315.47 730.087,1314.64 727.5,1312.5C 730.482,1312.96 733.482,1313.3 736.5,1313.5C 738.767,1305 740.6,1296.34 742,1287.5C 744.069,1282.46 746.236,1277.46 748.5,1272.5C 749.082,1267.65 750.082,1262.99 751.5,1258.5C 753.206,1256.39 754.539,1254.05 755.5,1251.5 Z"/></g>
<g><path style="opacity:0.316" fill="#2e6b6d" d="M 722.5,1342.5 C 713.486,1339.44 704.486,1336.27 695.5,1333C 693.866,1332.51 692.199,1332.34 690.5,1332.5C 690.372,1334.65 690.872,1336.65 692,1338.5C 698.867,1347.98 704.7,1357.98 709.5,1368.5C 709.631,1369.24 709.464,1369.91 709,1370.5C 700.291,1359.1 692.291,1347.1 685,1334.5C 684.219,1333.06 684.386,1331.72 685.5,1330.5C 686.971,1329.62 687.804,1328.29 688,1326.5C 688.317,1328.3 688.984,1328.63 690,1327.5C 693.259,1329.32 696.592,1329.99 700,1329.5C 700.442,1331.68 701.442,1332.35 703,1331.5C 703.853,1333.12 704.853,1333.46 706,1332.5C 710.677,1334.73 715.51,1336.56 720.5,1338C 722.167,1339 723.5,1340.33 724.5,1342C 723.906,1342.46 723.239,1342.63 722.5,1342.5 Z"/></g>
<g><path style="opacity:0.517" fill="#2d696b" d="M 166.5,1398.5 C 169.091,1399.25 170.924,1400.92 172,1403.5C 173.669,1407.18 174.836,1411.01 175.5,1415C 183.193,1428.92 188.86,1443.75 192.5,1459.5C 195.766,1459.43 197.266,1461.1 197,1464.5C 197.75,1465.13 198.584,1465.63 199.5,1466C 198.446,1467.39 198.28,1468.89 199,1470.5C 200.962,1472.86 202.462,1475.53 203.5,1478.5C 206.153,1480.72 209.153,1482.39 212.5,1483.5C 216.476,1481.18 220.143,1478.51 223.5,1475.5C 224.04,1474.25 224.707,1473.09 225.5,1472C 228.028,1471.49 230.195,1470.32 232,1468.5C 232.399,1468.73 232.565,1469.06 232.5,1469.5C 227.373,1475.46 222.04,1481.3 216.5,1487C 211.044,1487.55 206.211,1486.05 202,1482.5C 189.462,1454.7 177.629,1426.7 166.5,1398.5 Z"/></g>
<g><path style="opacity:0.565" fill="#2d7071" d="M 273.5,1422.5 C 262.952,1435.62 251.952,1448.29 240.5,1460.5C 242.146,1452.67 246.646,1447.01 254,1443.5C 256.333,1439.55 258.667,1435.55 261,1431.5C 265.899,1429.42 270.065,1426.42 273.5,1422.5 Z"/></g>
<g><path style="opacity:0.616" fill="#2d6a6c" d="M 925.5,1407.5 C 917.159,1432.21 908.826,1456.88 900.5,1481.5C 898.859,1479.8 897.859,1477.63 897.5,1475C 905.479,1454.37 912.979,1433.87 920,1413.5C 922.108,1411.62 923.441,1409.28 924,1406.5C 924.383,1407.06 924.883,1407.39 925.5,1407.5 Z"/></g>
<g><path style="opacity:0.498" fill="#2e6c6e" d="M 674.5,1443.5 C 672.5,1440.18 669.667,1437.85 666,1436.5C 661.623,1438.89 658.623,1442.56 657,1447.5C 654.934,1452.36 653.268,1457.36 652,1462.5C 648.435,1482.74 645.268,1503.07 642.5,1523.5C 641.5,1523.5 640.5,1523.5 639.5,1523.5C 641.704,1504.08 644.704,1484.58 648.5,1465C 648.355,1464.23 648.022,1463.56 647.5,1463C 649.814,1455.15 652.981,1447.32 657,1439.5C 658.011,1438.66 659.178,1438.33 660.5,1438.5C 659.923,1435.45 661.09,1433.45 664,1432.5C 665.32,1432.8 666.82,1432.97 668.5,1433C 671.488,1434.99 674.155,1437.32 676.5,1440C 675.695,1441.11 675.028,1442.28 674.5,1443.5 Z"/></g>
<g><path style="opacity:0.574" fill="#2d696a" d="M 757.5,1470.5 C 759.49,1481.73 759.99,1493.06 759,1504.5C 755.919,1511.95 750.419,1514.45 742.5,1512C 736.339,1508.39 730.339,1504.56 724.5,1500.5C 725.527,1499.15 726.86,1498.65 728.5,1499C 731.72,1501.47 734.72,1504.13 737.5,1507C 742.492,1508.54 747.492,1508.71 752.5,1507.5C 754.734,1502.59 756.067,1497.42 756.5,1492C 756.811,1486.93 756.478,1481.76 755.5,1476.5C 755.361,1474.12 756.028,1472.12 757.5,1470.5 Z"/></g>
<g><path style="opacity:0.718" fill="#2f6b6a" d="M 469.5,1529.5 C 459.127,1513.99 444.794,1508.49 426.5,1513C 417.981,1515.89 409.647,1519.06 401.5,1522.5C 399.023,1521.88 399.023,1520.88 401.5,1519.5C 406.208,1519.05 410.541,1517.72 414.5,1515.5C 414.5,1514.5 414.5,1513.5 414.5,1512.5C 415.552,1512.65 416.552,1512.48 417.5,1512C 416.476,1510.63 416.976,1509.8 419,1509.5C 421.028,1510.97 422.862,1510.8 424.5,1509C 432.5,1508.33 440.5,1508.33 448.5,1509C 452.862,1510.72 457.195,1512.39 461.5,1514C 464.333,1517.5 467.167,1521 470,1524.5C 470.78,1526.39 470.613,1528.05 469.5,1529.5 Z"/></g>
<g><path style="opacity:0.583" fill="#2d6669" d="M 363.5,1487.5 C 364.693,1487.97 365.36,1488.97 365.5,1490.5C 362.513,1505.14 359.513,1519.81 356.5,1534.5C 356.707,1538.55 358.707,1540.05 362.5,1539C 365.5,1537.33 368.5,1535.67 371.5,1534C 375.134,1533.84 378.467,1532.84 381.5,1531C 382.73,1528.31 384.563,1526.14 387,1524.5C 387.333,1524.83 387.667,1525.17 388,1525.5C 391.146,1523.17 394.646,1521.84 398.5,1521.5C 398.5,1522.5 398.5,1523.5 398.5,1524.5C 387.025,1530.4 375.691,1536.57 364.5,1543C 357.478,1544.82 353.478,1542.16 352.5,1535C 356.011,1519.09 359.677,1503.25 363.5,1487.5 Z"/></g>
<g><path style="opacity:0.5" fill="#2d706f" d="M 641.5,1524.5 C 638.778,1544.51 635.944,1564.51 633,1584.5C 630.7,1599.3 627.867,1613.97 624.5,1628.5C 623.853,1627.73 623.52,1626.73 623.5,1625.5C 625.788,1610.56 627.621,1595.56 629,1580.5C 632.759,1569.53 634.259,1558.36 633.5,1547C 636.544,1540.13 638.71,1532.96 640,1525.5C 640.383,1524.94 640.883,1524.61 641.5,1524.5 Z"/></g>
<g><path style="opacity:0.376" fill="#2e686b" d="M 559.5,1519.5 C 558.024,1517.23 556.524,1514.9 555,1512.5C 553.687,1511.43 552.187,1510.76 550.5,1510.5C 547.559,1511.61 545.392,1513.61 544,1516.5C 534.921,1541.74 526.254,1567.07 518,1592.5C 516.33,1597.17 514.163,1601.51 511.5,1605.5C 510.417,1605.54 509.417,1605.87 508.5,1606.5C 506.514,1609.65 504.181,1612.48 501.5,1615C 498.325,1614.95 495.658,1615.78 493.5,1617.5C 491.871,1616.37 490.371,1615.04 489,1613.5C 486.495,1609.41 484.495,1605.07 483,1600.5C 479.633,1587.03 477.466,1573.36 476.5,1559.5C 477.583,1559.46 478.583,1559.13 479.5,1558.5C 481.53,1561.21 481.53,1563.71 479.5,1566C 480.833,1568.67 480.833,1571.33 479.5,1574C 480.448,1574.48 481.448,1574.65 482.5,1574.5C 482.964,1586.29 485.464,1597.62 490,1608.5C 492.28,1612.77 495.78,1614.27 500.5,1613C 503.011,1610.82 505.178,1608.32 507,1605.5C 511.332,1596.19 515.665,1586.85 520,1577.5C 521.16,1569.69 523.327,1562.19 526.5,1555C 526.167,1554.67 525.833,1554.33 525.5,1554C 531.624,1539.69 537.458,1524.86 543,1509.5C 547.214,1506.25 551.548,1505.91 556,1508.5C 557.867,1511.41 559.367,1514.58 560.5,1518C 559.944,1518.38 559.611,1518.88 559.5,1519.5 Z"/></g>
<g><path style="opacity:0.133" fill="#2d9584" d="M 511.5,1605.5 C 508.708,1612.13 503.874,1616.46 497,1618.5C 495.744,1618.35 494.577,1618.02 493.5,1617.5C 495.658,1615.78 498.325,1614.95 501.5,1615C 504.181,1612.48 506.514,1609.65 508.5,1606.5C 509.417,1605.87 510.417,1605.54 511.5,1605.5 Z"/></g>
</svg>
